<svg width="255" height="50" viewBox="0 0 255 50" fill="none" xmlns="http://www.w3.org/2000/svg">
<path d="M19.0013 0.0813829C26.2252 -0.347667 33.6032 0.939492 38.4094 3.4757C43.5432 6.18353 46.5099 10.0165 47.4249 15.0888C47.6561 16.3855 47.6561 18.5691 47.4249 19.9516C46.5387 25.3006 43.1099 31.0023 37.3596 36.6849C34.133 39.8694 30.7906 42.3864 26.8609 44.6081C21.1491 47.8403 15.1967 49.7568 10.14 49.9762C8.87822 50.0333 8.91674 50.0143 10.8142 49.614C14.7633 48.7748 19.8586 46.601 23.9618 43.9884C30.6848 39.7169 36.1652 34.3773 39.9025 28.4564C42.5222 24.2994 43.7938 20.7907 43.9672 17.2342C44.2947 10.3788 39.5076 5.19192 30.4728 2.59849C26.6201 1.50202 23.2875 1.08255 18.3271 1.08255C15.0042 1.08255 13.1741 1.21597 10.6217 1.64502C9.88006 1.76896 9.1191 1.90256 8.93605 1.93117C8.24254 2.03605 10.1979 1.47337 11.7293 1.12059C14.1469 0.567595 16.4875 0.224401 19.0013 0.0813829Z" fill="#07113C"/>
<path d="M12.8251 6.05208C13.3734 5.81448 14.6049 6.27075 15.0764 6.87906C15.2111 7.05017 15.3361 7.35447 15.365 7.56359C15.4323 8.03892 15.1725 9.89243 14.8166 11.5273C14.5279 12.8296 14.374 13.419 13.0944 18.0292C12.6615 19.569 12.3152 20.8617 12.3152 20.8903C12.3155 20.9282 12.8444 20.7856 13.4985 20.5765C15.5382 19.9397 19.4059 18.7991 21.3976 18.2573C22.4558 17.9721 23.3218 17.7344 23.3314 17.7154C23.3608 17.6852 23.7164 16.0989 23.9472 14.9873C24.6688 11.5844 25.0728 8.70415 24.9573 7.80114C24.9189 7.48749 24.9381 7.23081 25.015 7.09773C25.1209 6.90764 25.1883 6.88859 25.6213 6.92661C26.2369 6.97414 26.7566 7.22135 27.2472 7.66812L27.6128 8.01981V8.82772C27.6128 9.93986 27.4204 10.9665 26.5932 14.2649C26.1991 15.8219 25.901 17.1229 25.9194 17.145C29.2965 16.5367 33.2798 15.938 35.2618 15.7479C37.9557 15.4912 40.7361 15.5577 38.7254 15.8333C37.0417 16.0615 34.1744 16.6128 32.0385 17.1165C30.1239 17.5728 25.5831 18.7706 25.5156 18.8277C25.4576 18.8948 24.3033 23.9319 24.005 25.4623C23.5046 28.0668 23.3604 29.2932 23.3987 30.814L23.4277 32.1448L23.1486 32.1256C22.3981 32.0686 21.7631 31.1277 21.638 29.8825C21.4647 28.2001 22.1577 23.4853 22.9657 19.5881L11.6704 23.4663L11.2279 25.3387C10.3043 29.141 9.90981 31.4888 9.70778 34.255C9.47687 37.4678 10.0541 39.7586 11.2279 40.2339C11.9302 40.5286 11.4108 40.8518 10.5353 40.6617C9.21721 40.367 8.19723 39.1883 7.66808 37.3347C7.48529 36.6789 7.46601 36.3841 7.46601 34.0459C7.46601 31.1753 7.55261 30.4053 8.28381 26.7933C8.49544 25.729 8.65899 24.8354 8.63019 24.8161C8.58206 24.7591 6.84063 25.5479 5.48404 26.2323C3.57907 27.1925 2.06853 28.3141 1.52012 29.1506L1.36623 29.3881L0.990983 29.1885C0.452203 28.8939 0 28.1904 0 27.6392C2.39832e-05 26.9357 0.384973 26.4318 1.44327 25.738C2.56898 25.0062 4.89725 23.8655 7.40828 22.7914L9.3807 21.9549L9.79437 20.3959C10.9393 16.0234 11.7475 12.82 11.9688 11.7364C12.3056 10.0824 12.6037 7.80112 12.6037 6.89811C12.6037 6.20425 12.623 6.13763 12.8251 6.05208Z" fill="#07113C"/>
<path d="M71.0196 27.9831V13.066H74.2274V27.9831H71.0196ZM61.3066 27.9831V13.066H64.5368V27.9831H61.3066ZM63.2133 21.7676V19.1007H72.2982V21.7676H63.2133Z" fill="#07113C"/>
<path d="M82.8335 28.2995C81.8614 28.2995 80.9941 28.1639 80.2314 27.8927C79.4837 27.6214 78.8481 27.2297 78.3247 26.7174C77.8013 26.2051 77.3975 25.5722 77.1134 24.8189C76.8442 24.0655 76.7096 23.2141 76.7096 22.2649C76.7096 21.3307 76.8367 20.4718 77.0909 19.6883C77.3601 18.8897 77.7489 18.2041 78.2574 17.6316C78.7658 17.0439 79.3865 16.5919 80.1192 16.2755C80.852 15.959 81.682 15.8008 82.6092 15.8008C83.5064 15.8008 84.3065 15.9515 85.0094 16.2529C85.7122 16.5391 86.2955 16.9761 86.7591 17.5638C87.2376 18.1514 87.5816 18.8746 87.7909 19.7335C88.0152 20.5773 88.0975 21.5492 88.0377 22.6491L78.7957 22.7395V20.954L86.1758 20.8862L85.0318 21.7902C85.1365 20.9917 85.0841 20.3362 84.8748 19.8239C84.6654 19.3116 84.3588 18.9349 83.9551 18.6938C83.5663 18.4527 83.1326 18.3322 82.654 18.3322C82.0858 18.3322 81.5848 18.4829 81.1511 18.7842C80.7174 19.0856 80.3809 19.5301 80.1417 20.1177C79.9024 20.6903 79.7828 21.3834 79.7828 22.1971C79.7828 23.4778 80.0594 24.4196 80.6127 25.0223C81.181 25.625 81.9213 25.9263 82.8335 25.9263C83.2522 25.9263 83.6036 25.8736 83.8878 25.7681C84.1869 25.6476 84.4261 25.4969 84.6056 25.3161C84.8 25.1353 84.9496 24.9319 85.0542 24.7058C85.1739 24.4798 85.2711 24.2538 85.3458 24.0278L88.1498 24.638C88.0152 25.1955 87.8134 25.7003 87.5442 26.1523C87.2899 26.5893 86.946 26.9735 86.5123 27.305C86.0786 27.6214 85.5552 27.8625 84.9421 28.0283C84.3439 28.2091 83.641 28.2995 82.8335 28.2995Z" fill="#07113C"/>
<path d="M90.3942 27.9831V16.1173H93.0412L93.0188 19.6657H93.4674C93.6618 18.8068 93.9385 18.0911 94.2974 17.5185C94.6563 16.946 95.1049 16.5165 95.6433 16.2303C96.1966 15.944 96.8471 15.8008 97.5949 15.8008C98.9557 15.8008 99.9876 16.283 100.69 17.2473C101.408 18.2117 101.767 19.726 101.767 21.7902V27.9831H98.5146V22.1519C98.5146 20.8862 98.3276 19.9671 97.9538 19.3945C97.5949 18.8068 97.064 18.513 96.3611 18.513C95.7629 18.513 95.2619 18.7014 94.8582 19.0781C94.4544 19.4548 94.1478 19.952 93.9385 20.5698C93.7441 21.1725 93.6394 21.8505 93.6244 22.6039V27.9831H90.3942Z" fill="#07113C"/>
<path d="M104.546 27.9831V16.1173H107.215L107.237 20.1629H107.664C107.783 19.1534 107.985 18.3322 108.269 17.6994C108.568 17.0665 108.98 16.5994 109.503 16.2981C110.026 15.9967 110.677 15.846 111.455 15.846C111.589 15.846 111.731 15.8536 111.881 15.8686C112.045 15.8686 112.232 15.8912 112.442 15.9364L112.307 19.3945C112.083 19.289 111.836 19.2137 111.567 19.1685C111.298 19.1233 111.058 19.1007 110.849 19.1007C110.266 19.1007 109.765 19.2363 109.346 19.5075C108.927 19.7787 108.583 20.1705 108.314 20.6828C108.06 21.18 107.888 21.7902 107.798 22.5135V27.9831H104.546Z" fill="#07113C"/>
<path d="M114.272 27.9831V16.1173H117.502V27.9831H114.272ZM115.909 14.3317C115.281 14.3317 114.795 14.2037 114.451 13.9475C114.122 13.6763 113.958 13.2845 113.958 12.7722C113.958 12.2449 114.122 11.8456 114.451 11.5743C114.795 11.3031 115.281 11.1675 115.909 11.1675C116.552 11.1675 117.038 11.3031 117.367 11.5743C117.711 11.8456 117.883 12.2449 117.883 12.7722C117.883 13.2695 117.711 13.6537 117.367 13.9249C117.038 14.1961 116.552 14.3317 115.909 14.3317Z" fill="#07113C"/>
<path d="M125.967 28.2995C124.995 28.2995 124.127 28.1639 123.364 27.8927C122.617 27.6214 121.981 27.2297 121.458 26.7174C120.934 26.2051 120.531 25.5722 120.246 24.8189C119.977 24.0655 119.843 23.2141 119.843 22.2649C119.843 21.3307 119.97 20.4718 120.224 19.6883C120.493 18.8897 120.882 18.2041 121.39 17.6316C121.899 17.0439 122.52 16.5919 123.252 16.2755C123.985 15.959 124.815 15.8008 125.742 15.8008C126.64 15.8008 127.44 15.9515 128.142 16.2529C128.845 16.5391 129.429 16.9761 129.892 17.5638C130.371 18.1514 130.715 18.8746 130.924 19.7335C131.148 20.5773 131.231 21.5492 131.171 22.6491L121.929 22.7395V20.954L129.309 20.8862L128.165 21.7902C128.27 20.9917 128.217 20.3362 128.008 19.8239C127.799 19.3116 127.492 18.9349 127.088 18.6938C126.699 18.4527 126.266 18.3322 125.787 18.3322C125.219 18.3322 124.718 18.4829 124.284 18.7842C123.851 19.0856 123.514 19.5301 123.275 20.1177C123.035 20.6903 122.916 21.3834 122.916 22.1971C122.916 23.4778 123.193 24.4196 123.746 25.0223C124.314 25.625 125.054 25.9263 125.967 25.9263C126.385 25.9263 126.737 25.8736 127.021 25.7681C127.32 25.6476 127.559 25.4969 127.739 25.3161C127.933 25.1353 128.083 24.9319 128.187 24.7058C128.307 24.4798 128.404 24.2538 128.479 24.0278L131.283 24.638C131.148 25.1955 130.946 25.7003 130.677 26.1523C130.423 26.5893 130.079 26.9735 129.645 27.305C129.212 27.6214 128.688 27.8625 128.075 28.0283C127.477 28.2091 126.774 28.2995 125.967 28.2995Z" fill="#07113C"/>
<path d="M137.902 28.2543C136.586 28.2543 135.614 27.9077 134.985 27.2146C134.372 26.5064 134.066 25.3839 134.066 23.847V18.6712H132.361L132.406 16.1173H133.595C134.058 16.1173 134.402 16.0494 134.627 15.9138C134.851 15.7782 134.985 15.5296 135.03 15.168L135.322 13.4729H137.161V16.1173H140.145V18.7616H137.161V23.7114C137.161 24.2538 137.288 24.6456 137.543 24.8867C137.797 25.1277 138.186 25.2483 138.709 25.2483C138.993 25.2483 139.262 25.2181 139.517 25.1579C139.786 25.0976 140.018 24.9997 140.212 24.8641V27.8927C139.748 28.0433 139.322 28.1413 138.933 28.1865C138.545 28.2317 138.201 28.2543 137.902 28.2543Z" fill="#07113C"/>
<path d="M147.102 28.2543C145.786 28.2543 144.814 27.9077 144.186 27.2146C143.573 26.5064 143.266 25.3839 143.266 23.847V18.6712H141.561L141.606 16.1173H142.795C143.259 16.1173 143.603 16.0494 143.827 15.9138C144.051 15.7782 144.186 15.5296 144.231 15.168L144.522 13.4729H146.362V16.1173H149.345V18.7616H146.362V23.7114C146.362 24.2538 146.489 24.6456 146.743 24.8867C146.997 25.1277 147.386 25.2483 147.91 25.2483C148.194 25.2483 148.463 25.2181 148.717 25.1579C148.986 25.0976 149.218 24.9997 149.413 24.8641V27.8927C148.949 28.0433 148.523 28.1413 148.134 28.1865C147.745 28.2317 147.401 28.2543 147.102 28.2543Z" fill="#07113C"/>
<path d="M157.051 28.2995C156.079 28.2995 155.212 28.1639 154.449 27.8927C153.702 27.6214 153.066 27.2297 152.543 26.7174C152.019 26.2051 151.615 25.5722 151.331 24.8189C151.062 24.0655 150.927 23.2141 150.927 22.2649C150.927 21.3307 151.055 20.4718 151.309 19.6883C151.578 18.8897 151.967 18.2041 152.475 17.6316C152.984 17.0439 153.604 16.5919 154.337 16.2755C155.07 15.959 155.9 15.8008 156.827 15.8008C157.724 15.8008 158.524 15.9515 159.227 16.2529C159.93 16.5391 160.513 16.9761 160.977 17.5638C161.455 18.1514 161.799 18.8746 162.009 19.7335C162.233 20.5773 162.315 21.5492 162.256 22.6491L153.014 22.7395V20.954L160.394 20.8862L159.25 21.7902C159.354 20.9917 159.302 20.3362 159.093 19.8239C158.883 19.3116 158.577 18.9349 158.173 18.6938C157.784 18.4527 157.35 18.3322 156.872 18.3322C156.304 18.3322 155.803 18.4829 155.369 18.7842C154.935 19.0856 154.599 19.5301 154.36 20.1177C154.12 20.6903 154.001 21.3834 154.001 22.1971C154.001 23.4778 154.277 24.4196 154.831 25.0223C155.399 25.625 156.139 25.9263 157.051 25.9263C157.47 25.9263 157.822 25.8736 158.106 25.7681C158.405 25.6476 158.644 25.4969 158.823 25.3161C159.018 25.1353 159.167 24.9319 159.272 24.7058C159.392 24.4798 159.489 24.2538 159.564 24.0278L162.368 24.638C162.233 25.1955 162.031 25.7003 161.762 26.1523C161.508 26.5893 161.164 26.9735 160.73 27.305C160.296 27.6214 159.773 27.8625 159.16 28.0283C158.562 28.2091 157.859 28.2995 157.051 28.2995Z" fill="#07113C"/>
<path d="M171.487 27.9831V25.3387H175.794C176.631 25.3387 177.327 25.1579 177.88 24.7963C178.433 24.4196 178.852 23.8771 179.136 23.1689C179.42 22.4608 179.562 21.5944 179.562 20.5698C179.562 19.726 179.472 19.0027 179.293 18.4C179.114 17.7822 178.844 17.2775 178.486 16.8857C178.142 16.4939 177.7 16.2001 177.162 16.0042C176.639 15.8084 176.018 15.7104 175.3 15.7104H171.487V13.066H175.188C176.983 13.066 178.448 13.3599 179.585 13.9475C180.721 14.5351 181.559 15.3789 182.097 16.4789C182.635 17.5638 182.905 18.8671 182.905 20.3889C182.905 21.5341 182.77 22.5286 182.501 23.3724C182.232 24.2161 181.865 24.9319 181.402 25.5195C180.953 26.1071 180.43 26.5818 179.831 26.9434C179.233 27.305 178.598 27.5687 177.925 27.7345C177.252 27.9002 176.571 27.9831 175.883 27.9831H171.487ZM169.939 27.9831V13.066H173.169V27.9831H169.939Z" fill="#07113C"/>
<path d="M189.481 28.2995C188.106 28.2995 187.066 27.8324 186.363 26.8982C185.676 25.9489 185.332 24.51 185.332 22.5813V16.1173H188.562V22.1745C188.562 23.3347 188.734 24.2011 189.078 24.7736C189.422 25.3312 189.945 25.6099 190.648 25.6099C191.067 25.6099 191.433 25.5044 191.747 25.2935C192.061 25.0825 192.33 24.7887 192.555 24.412C192.779 24.0353 192.943 23.5908 193.048 23.0785C193.168 22.5662 193.235 22.0163 193.25 21.4286V16.1173H196.48V27.9831H193.878L193.856 24.2764H193.452C193.228 25.2106 192.943 25.9791 192.6 26.5818C192.271 27.1694 191.844 27.6064 191.321 27.8927C190.812 28.1639 190.199 28.2995 189.481 28.2995Z" fill="#07113C"/>
<path d="M204.894 28.2995C203.877 28.2995 202.987 28.1488 202.224 27.8475C201.462 27.5461 200.826 27.1242 200.318 26.5818C199.809 26.0393 199.428 25.399 199.174 24.6606C198.919 23.9073 198.792 23.0861 198.792 22.1971C198.792 21.2629 198.919 20.4115 199.174 19.6431C199.443 18.8596 199.832 18.1815 200.34 17.609C200.849 17.0364 201.477 16.5919 202.224 16.2755C202.972 15.959 203.824 15.8008 204.782 15.8008C205.739 15.8008 206.569 15.959 207.272 16.2755C207.989 16.5919 208.565 17.0364 208.999 17.609C209.447 18.1665 209.754 18.8294 209.918 19.5979L206.935 20.5698C206.89 20.1027 206.763 19.7034 206.554 19.3719C206.359 19.0253 206.09 18.7692 205.746 18.6034C205.417 18.4226 205.043 18.3322 204.625 18.3322C204.191 18.3322 203.817 18.4226 203.503 18.6034C203.189 18.7692 202.92 19.0178 202.695 19.3493C202.486 19.6657 202.322 20.0575 202.202 20.5246C202.097 20.9766 202.045 21.4889 202.045 22.0615C202.045 22.8751 202.15 23.5682 202.359 24.1408C202.583 24.6983 202.905 25.1277 203.324 25.4291C203.757 25.7154 204.288 25.8585 204.916 25.8585C205.514 25.8585 205.993 25.7455 206.352 25.5195C206.711 25.2784 206.972 24.9771 207.137 24.6154C207.316 24.2387 207.429 23.8545 207.473 23.4628L210.3 24.0956C210.225 24.6832 210.061 25.2332 209.806 25.7455C209.567 26.2578 209.223 26.7023 208.774 27.079C208.326 27.4557 207.78 27.7571 207.137 27.9831C206.509 28.194 205.761 28.2995 204.894 28.2995Z" fill="#07113C"/>
<path d="M212.148 27.9831V11.823H215.334V20.7958C215.797 20.4794 216.238 20.1403 216.657 19.7787C217.091 19.402 217.48 19.0103 217.824 18.6034C218.182 18.1966 218.497 17.7822 218.766 17.3603C219.05 16.9384 219.289 16.5241 219.484 16.1173H223.185C222.96 16.6898 222.661 17.2699 222.288 17.8576C221.929 18.4301 221.495 18.965 220.986 19.4623C220.493 19.9444 219.917 20.3588 219.259 20.7054C218.601 21.0519 217.876 21.2855 217.083 21.406V21.7902C218.085 21.6094 218.915 21.6245 219.573 21.8354C220.231 22.0464 220.77 22.3854 221.188 22.8525C221.622 23.3045 221.966 23.8319 222.22 24.4346C222.474 25.0223 222.706 25.6174 222.916 26.2201L223.432 27.9831H219.91L219.618 26.8756C219.409 26.1373 219.177 25.4894 218.923 24.9319C218.669 24.3744 218.332 23.9449 217.913 23.6436C217.51 23.3272 216.949 23.1689 216.231 23.1689H215.334V27.9831H212.148Z" fill="#07113C"/>
<path d="M230.612 28.2995C229.64 28.2995 228.773 28.1639 228.01 27.8927C227.262 27.6214 226.627 27.2297 226.103 26.7174C225.58 26.2051 225.176 25.5722 224.892 24.8189C224.623 24.0655 224.488 23.2141 224.488 22.2649C224.488 21.3307 224.615 20.4718 224.869 19.6883C225.139 18.8897 225.527 18.2041 226.036 17.6316C226.544 17.0439 227.165 16.5919 227.898 16.2755C228.631 15.959 229.461 15.8008 230.388 15.8008C231.285 15.8008 232.085 15.9515 232.788 16.2529C233.491 16.5391 234.074 16.9761 234.538 17.5638C235.016 18.1514 235.36 18.8746 235.569 19.7335C235.794 20.5773 235.876 21.5492 235.816 22.6491L226.574 22.7395V20.954L233.954 20.8862L232.81 21.7902C232.915 20.9917 232.863 20.3362 232.653 19.8239C232.444 19.3116 232.137 18.9349 231.734 18.6938C231.345 18.4527 230.911 18.3322 230.433 18.3322C229.864 18.3322 229.363 18.4829 228.93 18.7842C228.496 19.0856 228.159 19.5301 227.92 20.1177C227.681 20.6903 227.561 21.3834 227.561 22.1971C227.561 23.4778 227.838 24.4196 228.391 25.0223C228.96 25.625 229.7 25.9263 230.612 25.9263C231.031 25.9263 231.382 25.8736 231.666 25.7681C231.965 25.6476 232.205 25.4969 232.384 25.3161C232.579 25.1353 232.728 24.9319 232.833 24.7058C232.952 24.4798 233.05 24.2538 233.124 24.0278L235.928 24.638C235.794 25.1955 235.592 25.7003 235.323 26.1523C235.068 26.5893 234.725 26.9735 234.291 27.305C233.857 27.6214 233.334 27.8625 232.721 28.0283C232.122 28.2091 231.42 28.2995 230.612 28.2995Z" fill="#07113C"/>
<path d="M238.173 27.9831V16.1173H240.842L240.865 20.1629H241.291C241.41 19.1534 241.612 18.3322 241.896 17.6994C242.196 17.0665 242.607 16.5994 243.13 16.2981C243.654 15.9967 244.304 15.846 245.082 15.846C245.216 15.846 245.358 15.8536 245.508 15.8686C245.673 15.8686 245.859 15.8912 246.069 15.9364L245.934 19.3945C245.71 19.289 245.463 19.2137 245.194 19.1685C244.925 19.1233 244.686 19.1007 244.476 19.1007C243.893 19.1007 243.392 19.2363 242.973 19.5075C242.554 19.7787 242.211 20.1705 241.941 20.6828C241.687 21.18 241.515 21.7902 241.425 22.5135V27.9831H238.173Z" fill="#07113C"/>
<path d="M252.69 28.2543C251.374 28.2543 250.401 27.9077 249.773 27.2146C249.16 26.5064 248.854 25.3839 248.854 23.847V18.6712H247.149L247.194 16.1173H248.383C248.846 16.1173 249.19 16.0494 249.414 15.9138C249.639 15.7782 249.773 15.5296 249.818 15.168L250.11 13.4729H251.949V16.1173H254.933V18.7616H251.949V23.7114C251.949 24.2538 252.076 24.6456 252.331 24.8867C252.585 25.1277 252.974 25.2483 253.497 25.2483C253.781 25.2483 254.05 25.2181 254.305 25.1579C254.574 25.0976 254.806 24.9997 255 24.8641V27.8927C254.536 28.0433 254.11 28.1413 253.721 28.1865C253.333 28.2317 252.989 28.2543 252.69 28.2543Z" fill="#07113C"/>
</svg>
