<svg width="743" height="258" viewBox="0 0 743 258" fill="none" xmlns="http://www.w3.org/2000/svg">
<path d="M97.0723 0.419937C133.935 -1.79396 171.584 4.84778 196.11 17.9346C222.307 31.907 237.446 51.6849 242.115 77.8584C243.295 84.5494 243.295 95.8164 242.115 102.95C237.593 130.551 220.096 159.972 190.753 189.294C174.288 205.726 157.232 218.714 137.179 230.178C108.032 246.856 77.6575 256.745 51.8535 257.877C45.4149 258.172 45.6115 258.074 55.2939 256.008C75.4457 251.678 101.447 240.461 122.385 226.98C156.692 204.939 184.658 177.387 203.729 146.835C217.097 125.385 223.586 107.28 224.471 88.9287C226.142 53.5548 201.714 26.7903 155.61 13.4082C135.95 7.7504 118.944 5.58597 93.6318 5.58595C76.6751 5.58595 67.3362 6.27442 54.3115 8.4883C50.5272 9.12784 46.6441 9.8172 45.71 9.96486C42.1711 10.506 52.1489 7.60259 59.9639 5.78224C72.3005 2.92879 84.2442 1.15791 97.0723 0.419937Z" fill="white"/>
<path d="M65.5176 31.3662C68.3191 30.1364 74.6099 32.498 77.0186 35.6465C77.7067 36.5321 78.3457 38.1071 78.4932 39.1895C78.8371 41.6497 77.5099 51.2431 75.6914 59.7051C74.2169 66.4453 73.4306 69.4961 66.8936 93.3574C64.6819 101.327 62.9132 108.018 62.9131 108.166C62.9143 108.362 65.6165 107.624 68.958 106.542C79.3778 103.246 99.1363 97.3425 109.311 94.5381C114.717 93.0621 119.141 91.8318 119.19 91.7334C119.34 91.5771 121.157 83.3664 122.336 77.6133C126.022 60.0002 128.086 45.0928 127.496 40.419C127.3 38.7956 127.398 37.4671 127.791 36.7783C128.332 35.7944 128.676 35.6958 130.888 35.8926C134.033 36.1386 136.688 37.4181 139.194 39.7305L141.062 41.5508V45.7324C141.062 51.4886 140.079 56.8024 135.853 73.874C133.84 81.9328 132.317 88.6668 132.411 88.7813C149.663 85.6325 170.012 82.5338 180.137 81.5498C193.899 80.2215 208.103 80.5655 197.831 81.9922C189.23 83.173 174.582 86.0263 163.671 88.6338C153.89 90.9953 130.693 97.1948 130.348 97.4902C130.052 97.8376 124.155 123.909 122.631 131.83C120.075 145.31 119.338 151.658 119.534 159.529L119.682 166.417L118.256 166.318C114.422 166.023 111.178 161.153 110.539 154.708C109.654 146 113.194 121.597 117.322 101.426L59.6191 121.499L57.3584 131.19C52.64 150.87 50.6249 163.022 49.5928 177.339C48.4132 193.968 51.3622 205.825 57.3584 208.285C60.9463 209.81 58.2928 211.483 53.8203 210.499C47.0867 208.974 41.8761 202.873 39.1729 193.279C38.2391 189.885 38.1406 188.359 38.1406 176.257C38.1406 161.399 38.583 157.414 42.3184 138.719C43.3995 133.21 44.235 128.585 44.0879 128.485C43.842 128.19 34.9458 132.273 28.0156 135.815C18.2839 140.785 10.5672 146.59 7.76562 150.92L6.97949 152.149L5.0625 151.116C2.31011 149.591 0 145.95 0 143.097C0.00012252 139.456 1.96666 136.848 7.37305 133.257C13.1238 129.469 25.0179 123.565 37.8457 118.006L47.9219 113.676L50.0352 105.607C55.8841 82.9761 60.0131 66.3958 61.1436 60.7871C62.8638 52.2266 64.3867 40.4189 64.3867 35.7451C64.3867 32.1538 64.4854 31.809 65.5176 31.3662Z" fill="white"/>
<path fill-rule="evenodd" clip-rule="evenodd" d="M346.052 100.548C348.118 100.548 349.96 100.89 351.578 101.576C353.197 102.228 354.54 103.223 355.607 104.561C356.709 105.898 357.501 107.545 357.983 109.5C358.5 111.421 358.688 113.633 358.551 116.137L339.584 116.32C339.741 118.625 340.364 120.366 341.454 121.54C342.763 122.912 344.468 123.598 346.568 123.598C347.532 123.598 348.341 123.477 348.995 123.237C349.684 122.963 350.235 122.62 350.648 122.208C351.096 121.796 351.441 121.334 351.682 120.819C351.957 120.305 352.18 119.79 352.353 119.275L358.81 120.665C358.5 121.934 358.035 123.083 357.415 124.112C356.83 125.107 356.038 125.982 355.039 126.736C354.04 127.457 352.835 128.006 351.423 128.383C350.046 128.794 348.427 129 346.568 129C344.33 129 342.332 128.692 340.576 128.074C338.854 127.457 337.391 126.565 336.186 125.398C334.98 124.232 334.051 122.791 333.396 121.076C332.777 119.361 332.467 117.423 332.467 115.263C332.467 113.136 332.759 111.181 333.345 109.397C333.965 107.58 334.86 106.018 336.031 104.715C337.202 103.377 338.631 102.348 340.318 101.628C342.006 100.908 343.917 100.548 346.052 100.548ZM346.154 106.31C344.846 106.31 343.693 106.653 342.694 107.339C341.696 108.025 340.921 109.037 340.37 110.375C340.128 110.949 339.938 111.575 339.802 112.255L351.743 112.146C351.713 111.217 351.557 110.403 351.269 109.706C350.786 108.54 350.08 107.682 349.15 107.133C348.255 106.584 347.256 106.31 346.154 106.31Z" fill="white"/>
<path fill-rule="evenodd" clip-rule="evenodd" d="M445.37 100.548C447.436 100.548 449.278 100.89 450.896 101.576C452.515 102.228 453.858 103.223 454.926 104.561C456.028 105.898 456.82 107.545 457.302 109.5C457.818 111.421 458.008 113.633 457.87 116.137L438.902 116.32C439.059 118.625 439.683 120.366 440.773 121.54C442.082 122.912 443.786 123.598 445.887 123.598C446.851 123.598 447.66 123.477 448.314 123.237C449.003 122.963 449.554 122.62 449.967 122.208C450.414 121.796 450.759 121.334 451 120.819C451.275 120.305 451.5 119.79 451.672 119.275L458.128 120.665C457.818 121.934 457.353 123.083 456.733 124.112C456.148 125.107 455.356 125.982 454.357 126.736C453.359 127.457 452.154 128.006 450.742 128.383C449.365 128.794 447.746 129 445.887 129C443.648 129 441.651 128.692 439.895 128.074C438.173 127.457 436.71 126.565 435.505 125.398C434.3 124.232 433.37 122.791 432.716 121.076C432.096 119.361 431.786 117.424 431.786 115.263C431.786 113.136 432.079 111.181 432.664 109.397C433.284 107.58 434.179 106.018 435.35 104.715C436.52 103.377 437.949 102.348 439.637 101.628C441.324 100.908 443.235 100.548 445.37 100.548ZM445.474 106.31C444.165 106.31 443.011 106.653 442.013 107.339C441.014 108.025 440.239 109.037 439.688 110.375C439.446 110.949 439.256 111.575 439.12 112.255L451.062 112.146C451.033 111.217 450.875 110.403 450.587 109.706C450.105 108.54 449.398 107.682 448.469 107.133C447.574 106.584 446.575 106.31 445.474 106.31Z" fill="white"/>
<path fill-rule="evenodd" clip-rule="evenodd" d="M516.946 100.548C519.012 100.548 520.854 100.89 522.473 101.576C524.091 102.228 525.434 103.223 526.502 104.561C527.604 105.898 528.396 107.545 528.878 109.5C529.394 111.421 529.584 113.633 529.446 116.137L510.479 116.32C510.636 118.625 511.258 120.366 512.349 121.54C513.657 122.912 515.362 123.598 517.463 123.598C518.427 123.598 519.236 123.477 519.891 123.237C520.579 122.963 521.13 122.62 521.543 122.208C521.991 121.796 522.335 121.334 522.576 120.819C522.852 120.305 523.076 119.79 523.248 119.275L529.704 120.665C529.394 121.934 528.929 123.083 528.31 124.112C527.724 125.107 526.932 125.982 525.934 126.736C524.935 127.457 523.73 128.006 522.318 128.383C520.941 128.794 519.322 129 517.463 129C515.225 129 513.227 128.692 511.471 128.074C509.749 127.457 508.286 126.565 507.081 125.398C505.876 124.232 504.945 122.791 504.291 121.076C503.671 119.361 503.361 117.423 503.361 115.263C503.361 113.136 503.655 111.181 504.24 109.397C504.86 107.58 505.755 106.018 506.926 104.715C508.097 103.377 509.526 102.348 511.213 101.628C512.9 100.908 514.811 100.548 516.946 100.548ZM517.05 106.31C515.741 106.31 514.587 106.653 513.589 107.339C512.59 108.025 511.816 109.037 511.265 110.375C511.022 110.949 510.832 111.575 510.696 112.255L522.639 112.146C522.609 111.217 522.451 110.403 522.163 109.706C521.681 108.54 520.975 107.682 520.045 107.133C519.15 106.584 518.151 106.31 517.05 106.31Z" fill="white"/>
<path d="M590.019 115.057C590.019 117.698 590.415 119.67 591.207 120.974C591.999 122.243 593.204 122.877 594.822 122.877C595.786 122.877 596.63 122.637 597.354 122.157C598.077 121.677 598.696 121.008 599.213 120.15C599.729 119.293 600.109 118.281 600.35 117.115C600.625 115.949 600.78 114.696 600.814 113.358V101.268H608.252V128.279H602.261L602.209 119.842H601.279C600.763 121.968 600.108 123.718 599.316 125.09C598.559 126.428 597.577 127.423 596.372 128.074C595.201 128.692 593.789 129 592.137 129C588.969 129 586.575 127.936 584.957 125.81C583.373 123.649 582.581 120.373 582.581 115.982V101.268H590.019V115.057Z" fill="white"/>
<path d="M627.367 100.548C629.571 100.548 631.481 100.908 633.1 101.628C634.752 102.348 636.079 103.361 637.077 104.664C638.11 105.933 638.817 107.442 639.195 109.191L632.325 111.403C632.222 110.34 631.929 109.431 631.447 108.677C631 107.888 630.38 107.305 629.588 106.928C628.83 106.516 627.969 106.31 627.005 106.31C626.006 106.31 625.146 106.516 624.423 106.928C623.7 107.305 623.08 107.871 622.563 108.625C622.081 109.345 621.702 110.237 621.427 111.301C621.186 112.33 621.065 113.496 621.065 114.8C621.065 116.652 621.306 118.23 621.788 119.533C622.305 120.802 623.046 121.78 624.01 122.466C625.008 123.117 626.231 123.443 627.677 123.443C629.054 123.443 630.156 123.186 630.982 122.672C631.809 122.123 632.411 121.437 632.79 120.613C633.203 119.756 633.461 118.881 633.564 117.989L640.073 119.43C639.901 120.767 639.522 122.019 638.937 123.186C638.386 124.352 637.594 125.364 636.561 126.222C635.528 127.079 634.271 127.765 632.79 128.279C631.344 128.76 629.622 129 627.625 129C625.283 129 623.235 128.657 621.479 127.971C619.722 127.285 618.259 126.325 617.088 125.09C615.917 123.855 615.039 122.397 614.454 120.717C613.869 119.002 613.575 117.132 613.575 115.108C613.575 112.982 613.869 111.043 614.454 109.294C615.074 107.511 615.969 105.967 617.14 104.664C618.31 103.361 619.757 102.348 621.479 101.628C623.2 100.908 625.163 100.548 627.367 100.548Z" fill="white"/>
<path fill-rule="evenodd" clip-rule="evenodd" d="M686.327 100.548C688.393 100.548 690.236 100.89 691.854 101.576C693.473 102.228 694.815 103.223 695.883 104.561C696.916 105.815 697.677 107.34 698.165 109.137L698.353 109.863C698.798 111.698 698.956 113.789 698.827 116.137L679.86 116.32C680.017 118.625 680.64 120.366 681.73 121.54C683.039 122.912 684.743 123.598 686.844 123.598C687.808 123.598 688.617 123.477 689.271 123.237C689.96 122.963 690.512 122.62 690.925 122.208C691.372 121.796 691.717 121.334 691.958 120.819C692.233 120.305 692.457 119.79 692.629 119.275L699.086 120.665C698.776 121.934 698.311 123.083 697.691 124.112C697.106 125.107 696.314 125.982 695.315 126.736C694.317 127.457 693.111 128.006 691.699 128.383C690.322 128.794 688.703 129 686.844 129C684.606 129 682.609 128.692 680.853 128.074C679.131 127.457 677.667 126.565 676.462 125.398C675.257 124.232 674.327 122.791 673.673 121.076C673.053 119.361 672.743 117.423 672.743 115.263C672.743 113.136 673.036 111.181 673.621 109.397C674.241 107.58 675.137 106.018 676.308 104.715C677.478 103.377 678.907 102.348 680.594 101.628C682.281 100.908 684.192 100.548 686.327 100.548ZM686.431 106.31C685.122 106.31 683.969 106.653 682.971 107.339C681.972 108.025 681.196 109.037 680.646 110.375C680.403 110.949 680.214 111.575 680.078 112.255L692.02 112.146C691.99 111.217 691.832 110.403 691.544 109.706C691.062 108.54 690.356 107.682 689.427 107.133C688.531 106.584 687.533 106.31 686.431 106.31Z" fill="white"/>
<path d="M471.664 101.268H478.533V107.288H471.664V118.556C471.664 119.79 471.957 120.682 472.542 121.23C473.127 121.779 474.022 122.054 475.228 122.054C475.882 122.054 476.502 121.986 477.087 121.849C477.707 121.711 478.241 121.488 478.688 121.18V128.074C477.621 128.417 476.639 128.64 475.744 128.743C474.849 128.846 474.057 128.897 473.368 128.897C470.338 128.897 468.1 128.108 466.653 126.53C465.242 124.918 464.536 122.363 464.536 118.864V107.082H460.61L460.714 101.268H463.451C464.519 101.268 465.311 101.113 465.827 100.805C466.344 100.496 466.654 99.9296 466.757 99.1065L467.428 95.2481H471.664V101.268Z" fill="white"/>
<path d="M492.849 101.268H499.719V107.288H492.849V118.556C492.849 119.79 493.142 120.682 493.727 121.23C494.312 121.779 495.208 122.054 496.413 122.054C497.067 122.054 497.687 121.986 498.272 121.849C498.892 121.711 499.426 121.488 499.874 121.18V128.074C498.807 128.417 497.825 128.64 496.93 128.743C496.035 128.846 495.242 128.897 494.554 128.897C491.523 128.897 489.285 128.108 487.839 126.53C486.427 124.918 485.721 122.363 485.721 118.864V107.082H481.796L481.898 101.268H484.637C485.704 101.268 486.496 101.113 487.013 100.805C487.529 100.496 487.839 99.9295 487.942 99.1065L488.613 95.2481H492.849V101.268Z" fill="white"/>
<path d="M735.976 101.268H742.845V107.288H735.976V118.556C735.976 119.79 736.268 120.682 736.854 121.23C737.439 121.779 738.334 122.054 739.539 122.054C740.193 122.054 740.813 121.986 741.398 121.849C742.018 121.711 742.552 121.488 743 121.18V128.074C741.933 128.417 740.951 128.64 740.056 128.743C739.16 128.846 738.368 128.897 737.68 128.897C734.65 128.897 732.411 128.108 730.965 126.53C729.553 124.918 728.848 122.363 728.848 118.864V107.082H724.922L725.025 101.268H727.763C728.83 101.268 729.622 101.113 730.139 100.805C730.655 100.496 730.965 99.9297 731.068 99.1065L731.74 95.2481H735.976V101.268Z" fill="white"/>
<path d="M304.438 108.06H319.365V94.3223H326.751V128.279H319.365V114.131H304.438V128.279H297V94.3223H304.438V108.06Z" fill="white"/>
<path d="M380.558 100.548C383.691 100.548 386.067 101.646 387.686 103.841C389.338 106.036 390.165 109.483 390.165 114.182V128.279H382.676V115.005C382.676 112.124 382.245 110.032 381.384 108.729C380.557 107.391 379.335 106.722 377.717 106.722C376.339 106.722 375.186 107.15 374.256 108.008C373.326 108.865 372.621 109.997 372.139 111.403C371.691 112.775 371.449 114.319 371.415 116.034V128.279H363.978V101.268H370.072L370.021 109.346H371.054C371.501 107.391 372.138 105.761 372.965 104.458C373.791 103.155 374.824 102.177 376.063 101.525C377.338 100.874 378.836 100.548 380.558 100.548Z" fill="white"/>
<path d="M412.471 100.65C412.781 100.65 413.108 100.668 413.452 100.702C413.831 100.702 414.262 100.754 414.744 100.856L414.434 108.729C413.917 108.488 413.349 108.317 412.729 108.214C412.11 108.111 411.558 108.06 411.076 108.06C409.734 108.06 408.58 108.368 407.616 108.985C406.652 109.603 405.86 110.495 405.24 111.661C404.655 112.793 404.258 114.182 404.052 115.828V128.279H396.562V101.268H402.709L402.761 110.478H403.742C404.018 108.179 404.482 106.31 405.137 104.869C405.825 103.429 406.772 102.366 407.978 101.68C409.183 100.994 410.68 100.65 412.471 100.65Z" fill="white"/>
<path d="M426.396 128.279H418.958V101.268H426.396V128.279Z" fill="white"/>
<path fill-rule="evenodd" clip-rule="evenodd" d="M559.225 94.3223C563.356 94.3223 566.731 94.9906 569.348 96.3281C571.965 97.6658 573.893 99.587 575.133 102.091C576.372 104.56 576.992 107.528 576.992 110.992C576.992 113.599 576.682 115.862 576.062 117.783C575.443 119.704 574.6 121.334 573.532 122.672C572.499 124.01 571.293 125.09 569.916 125.913C568.539 126.736 567.075 127.337 565.525 127.714C563.976 128.091 562.409 128.279 560.825 128.279H547.138V94.3223H559.225ZM554.575 122.26H560.619C562.547 122.26 564.149 121.849 565.423 121.025C566.697 120.168 567.661 118.932 568.315 117.32C568.97 115.708 569.297 113.736 569.297 111.403C569.297 109.483 569.09 107.837 568.677 106.465C568.264 105.059 567.644 103.909 566.817 103.018C566.025 102.126 565.009 101.457 563.77 101.011C562.564 100.565 561.135 100.342 559.482 100.342H554.575V122.26Z" fill="white"/>
<path d="M651.664 111.918C652.731 111.198 653.748 110.426 654.712 109.603C655.71 108.745 656.606 107.854 657.397 106.928C658.224 106.002 658.947 105.058 659.566 104.098C660.221 103.137 660.772 102.194 661.22 101.268H669.742C669.226 102.571 668.537 103.892 667.676 105.23C666.849 106.533 665.851 107.751 664.681 108.883C663.544 109.98 662.218 110.924 660.703 111.713C659.188 112.502 657.517 113.033 655.692 113.308V114.182C657.999 113.77 659.911 113.805 661.426 114.285C662.941 114.765 664.181 115.537 665.146 116.601C666.144 117.63 666.936 118.83 667.521 120.202C668.107 121.54 668.64 122.895 669.122 124.267L670.311 128.279H662.201L661.529 125.759C661.047 124.078 660.514 122.603 659.929 121.334C659.343 120.065 658.568 119.087 657.604 118.401C656.674 117.681 655.383 117.32 653.73 117.32H651.664V128.279H644.329V91.4922H651.664V111.918Z" fill="white"/>
<path d="M720.162 100.65C720.472 100.65 720.799 100.668 721.144 100.702C721.522 100.702 721.953 100.754 722.435 100.856L722.125 108.729C721.609 108.488 721.041 108.317 720.421 108.214C719.801 108.111 719.25 108.06 718.768 108.06C717.425 108.06 716.271 108.368 715.307 108.985C714.343 109.603 713.55 110.495 712.931 111.661C712.345 112.793 711.95 114.182 711.743 115.828V128.279H704.254V101.268H710.4L710.452 110.478H711.434C711.709 108.179 712.174 106.31 712.828 104.869C713.517 103.429 714.464 102.366 715.669 101.68C716.874 100.994 718.372 100.65 720.162 100.65Z" fill="white"/>
<path d="M422.729 90C424.209 90 425.328 90.3086 426.086 90.9258C426.878 91.5432 427.274 92.4528 427.274 93.6533C427.274 94.7851 426.878 95.66 426.086 96.2774C425.328 96.8946 424.209 97.2031 422.729 97.2031C421.282 97.2031 420.163 96.9112 419.371 96.3281C418.614 95.7108 418.235 94.8192 418.235 93.6533C418.235 92.4528 418.614 91.5432 419.371 90.9258C420.163 90.3084 421.282 90.0001 422.729 90Z" fill="white"/>
</svg>
