<svg width="243" height="258" viewBox="0 0 243 258" fill="none" xmlns="http://www.w3.org/2000/svg">
<path d="M97.0723 0.419937C133.935 -1.79396 171.584 4.84777 196.11 17.9346C222.307 31.907 237.446 51.6849 242.115 77.8584C243.295 84.5494 243.295 95.8164 242.115 102.95C237.593 130.551 220.096 159.972 190.753 189.294C174.288 205.726 157.232 218.714 137.179 230.178C108.032 246.856 77.6575 256.745 51.8535 257.877C45.4149 258.172 45.6115 258.074 55.2939 256.008C75.4457 251.678 101.447 240.461 122.385 226.98C156.692 204.939 184.658 177.387 203.729 146.835C217.097 125.385 223.586 107.28 224.471 88.9287C226.142 53.5548 201.714 26.7903 155.61 13.4082C135.95 7.7504 118.944 5.58597 93.6318 5.58595C76.6751 5.58595 67.3362 6.27442 54.3115 8.4883C50.5272 9.12784 46.6441 9.8172 45.71 9.96486C42.1711 10.506 52.1489 7.6026 59.9639 5.78224C72.3005 2.92879 84.2442 1.15791 97.0723 0.419937Z" fill="white"/>
<path d="M65.5176 31.3662C68.3191 30.1364 74.61 32.498 77.0186 35.6465C77.7067 36.5321 78.3457 38.1071 78.4932 39.1895C78.8371 41.6497 77.5099 51.2431 75.6914 59.7051C74.2169 66.4453 73.4306 69.4961 66.8936 93.3574C64.6818 101.327 62.9131 108.018 62.9131 108.166C62.9143 108.362 65.6165 107.624 68.958 106.542C79.3778 103.246 99.1363 97.3425 109.311 94.5381C114.717 93.0621 119.141 91.8318 119.19 91.7334C119.34 91.5773 121.157 83.3665 122.336 77.6133C126.022 60.0002 128.086 45.0928 127.496 40.419C127.3 38.7956 127.398 37.4671 127.791 36.7783C128.332 35.7944 128.676 35.6958 130.888 35.8926C134.033 36.1386 136.688 37.4181 139.194 39.7305L141.062 41.5508V45.7324C141.062 51.4886 140.079 56.8024 135.853 73.874C133.84 81.933 132.317 88.6671 132.411 88.7813C149.663 85.6325 170.012 82.5338 180.137 81.5498C193.899 80.2215 208.103 80.5655 197.831 81.9922C189.23 83.173 174.582 86.0263 163.671 88.6338C153.89 90.9954 130.692 97.1949 130.348 97.4902C130.052 97.8376 124.155 123.909 122.631 131.83C120.075 145.311 119.338 151.658 119.534 159.529L119.682 166.417L118.256 166.318C114.422 166.023 111.178 161.153 110.539 154.708C109.654 146 113.194 121.597 117.322 101.426L59.6191 121.499L57.3584 131.19C52.64 150.87 50.6249 163.022 49.5928 177.339C48.4132 193.968 51.3622 205.825 57.3584 208.285C60.9463 209.81 58.2928 211.483 53.8203 210.499C47.0867 208.974 41.8761 202.873 39.1729 193.279C38.2391 189.885 38.1406 188.359 38.1406 176.257C38.1406 161.399 38.583 157.414 42.3184 138.719C43.3995 133.21 44.235 128.585 44.0879 128.485C43.8421 128.19 34.9459 132.273 28.0156 135.815C18.2839 140.785 10.5672 146.59 7.76562 150.92L6.97949 152.149L5.0625 151.116C2.31011 149.591 0 145.95 0 143.097C0.000117025 139.456 1.96665 136.848 7.37305 133.257C13.1238 129.469 25.0179 123.565 37.8457 118.006L47.9219 113.676L50.0352 105.607C55.8841 82.9761 60.0131 66.3958 61.1436 60.7871C62.8638 52.2266 64.3867 40.4189 64.3867 35.7451C64.3867 32.1538 64.4854 31.809 65.5176 31.3662Z" fill="white"/>
</svg>
